<?xml version="1.0" encoding="UTF-8"?>
<svg width="68px" height="28px" viewBox="0 0 68 28" version="1.1" xmlns="http://www.w3.org/2000/svg" xmlns:xlink="http://www.w3.org/1999/xlink">
    <title>intel</title>
    <defs>
        <linearGradient x1="-0.000237304262%" y1="41.5224913%" x2="129.952559%" y2="63.5558819%" id="linearGradient-1">
            <stop stop-color="#1284CB" offset="0%"></stop>
            <stop stop-color="#009FE7" offset="42.966413%"></stop>
            <stop stop-color="#1284C9" offset="100%"></stop>
        </linearGradient>
    </defs>
    <g id="Showcase" stroke="none" stroke-width="1" fill="none" fill-rule="evenodd">
        <g id="Showcase-Subcategory" transform="translate(-976.000000, -1307.000000)" fill-rule="nonzero">
            <g id="intel" transform="translate(976.000000, 1307.000000)">
                <polygon id="path1149" fill="url(#linearGradient-1)" points="0 0 0 28 68 28 68 0"></polygon>
                <g id="Group-25" transform="translate(11.873016, 4.307692)" fill="#FFFFFF">
                    <polygon id="path1090" points="3.15546853 16.9904995 3.15546853 5.4003472 0.0806137949 5.4003472 0.0806137949 16.9790584 3.15546853 16.9790584"></polygon>
                    <path d="M23.5162847,17.1049138 L23.5162847,14.2674431 C23.0671479,14.2674431 22.6871129,14.244559 22.4107208,14.1987946 C22.0882655,14.1530311 21.8464197,14.0386149 21.6851922,13.8784348 C21.5239644,13.7182552 21.4203168,13.4894271 21.3627369,13.1805085 C21.3166881,12.8944735 21.2936402,12.5169068 21.2936402,12.0592501 L21.2936402,8.02043097 L23.5162847,8.02043097 L23.5162847,5.4003472 L21.2936402,5.4003472 L21.2936402,0.892430713 L18.2187854,0.892430713 L18.2187854,12.0935744 C18.2187854,13.0432115 18.2993991,13.8441106 18.4606313,14.4848301 C18.6218591,15.1141075 18.8982465,15.6289715 19.2782862,16.0179797 C19.658326,16.4069875 20.1650423,16.6815814 20.7754066,16.8532026 C21.3972878,17.0248238 22.1803916,17.1049138 23.1132158,17.1049138 L23.5162847,17.1049138 Z" id="path1088"></path>
                    <polygon id="path1086" points="41.1131935 16.9904995 41.1131935 0 38.0383387 0 38.0383387 16.9904995"></polygon>
                    <path d="M15.2590999,6.54448868 C14.4068896,5.62917578 13.2091951,5.17151908 11.6890455,5.17151908 C10.9519998,5.17151908 10.2725388,5.3202576 9.67369155,5.61773467 C9.06332735,5.91521125 8.55661081,6.32710214 8.14202499,6.8534073 L7.98079743,7.07079384 L7.98079743,6.87628995 L7.98079743,5.4003472 L4.9520103,5.4003472 L4.9520103,16.9790603 L8.00382658,16.9790603 L8.00382658,10.8121359 L8.00382658,11.2354684 C8.00382658,11.1668204 8.00382658,11.0981714 8.00382658,11.0295234 C8.03838677,9.94258885 8.30325255,9.14168977 8.8099691,8.62682619 C9.35123643,8.07763835 10.0076636,7.80304443 10.7562262,7.80304443 C11.6429778,7.80304443 12.3224435,8.07763835 12.7715754,8.60394304 C13.2091951,9.1302482 13.4395242,9.87394039 13.4395242,10.8235775 L13.4395242,10.8235775 L13.4395242,10.8579036 C13.4395242,10.8579036 13.4395242,10.8579036 13.4395242,10.8579036 L13.4395242,10.8579036 L13.4395242,16.9790603 L16.537408,16.9790603 L16.537408,10.4116867 C16.548944,8.76412314 16.1113054,7.45980156 15.2590999,6.54448868 L15.2590999,6.54448868 Z" id="path1084"></path>
                    <path d="M27.3166634,10.1142101 C27.3166634,9.26754517 28.2955505,7.79160286 30.4030305,7.78016131 C32.5105151,7.78016131 33.5009189,9.25610406 33.5009189,10.1027685 L27.3166634,10.1142101 Z M36.4490874,11.1782615 C36.4490874,10.3430386 36.2993768,9.56502221 36.0114725,8.83277162 C35.7120465,8.11196258 35.2974608,7.47124313 34.7792272,6.92205532 C34.2494767,6.37286748 33.6160788,5.94953504 32.8790379,5.64061733 C32.141992,5.33169918 31.3243374,5.18296066 30.437581,5.18296066 C29.5968925,5.18296066 28.8022668,5.34314075 28.0652213,5.65205844 C27.3281804,5.97241816 26.6832652,6.3957506 26.1420027,6.93349687 C25.6007355,7.47124313 25.1631156,8.11196258 24.8521776,8.84421273 C24.5297177,9.57646332 24.3800069,10.3659208 24.3800069,11.2011442 C24.3800069,12.0363675 24.5297177,12.825825 24.8291437,13.5580756 C25.128565,14.2903257 25.5546676,14.9310452 26.0844182,15.4687919 C26.6141684,16.0065382 27.2706003,16.4413117 28.0306751,16.7502299 C28.7907499,17.0705896 29.6314387,17.2307692 30.5297117,17.2307692 C33.1323961,17.2307692 34.7446764,16.0523035 35.7120465,14.9539278 L33.5009189,13.2834812 C33.0402654,13.832669 31.9347017,14.5763612 30.5527457,14.5763612 C29.6890232,14.5763612 28.9750116,14.3818569 28.433744,13.9814076 C27.8924768,13.5923998 27.5239587,13.0432115 27.3281804,12.3681683 L27.2936201,12.265196 L36.4490874,12.265196 L36.4490874,11.1782615 Z" id="path1080"></path>
                    <path d="M45.9964834,15.944884 C45.927142,16.1171788 45.8230659,16.2722441 45.7016623,16.3928505 C45.5802685,16.5134574 45.4241921,16.6168342 45.2507696,16.6857526 C45.0773424,16.7546705 44.9039245,16.789129 44.6958148,16.789129 C44.5050508,16.789129 44.3142823,16.754672 44.1408598,16.6857526 C43.9674419,16.6168342 43.8113609,16.5134574 43.6899624,16.3928505 C43.5685685,16.2722441 43.4645158,16.1171788 43.3951413,15.944884 C43.3257995,15.7725883 43.2910886,15.6002935 43.2910886,15.3935392 C43.2910886,15.2040149 43.3257429,15.0144906 43.3951413,14.8421954 C43.4644877,14.6699006 43.5685685,14.5148348 43.6899624,14.3942284 C43.8113609,14.273622 43.9674419,14.1702447 44.1408598,14.1013267 C44.3142823,14.0324088 44.4877096,13.9979499 44.6958148,13.9979499 C44.8865833,13.9979499 45.0773424,14.0324069 45.2507696,14.1013267 C45.4241921,14.1702447 45.5802685,14.273622 45.7016623,14.3942284 C45.8230659,14.5148348 45.9271182,14.6699006 45.9964834,14.8421954 C46.0658299,15.0144906 46.1005361,15.1867854 46.1005361,15.3935392 C46.1005361,15.6002935 46.0658818,15.7725883 45.9964834,15.944884 L45.9964834,15.944884 Z M46.2739633,14.738818 C46.1872522,14.5320642 46.0658583,14.3597694 45.909777,14.2047041 C45.753691,14.0496388 45.5802685,13.9290315 45.3721635,13.8428845 C45.1640582,13.7567366 44.9386026,13.7050482 44.7131561,13.7050482 C44.4703636,13.7050482 44.2622537,13.7567366 44.0541487,13.8428845 C43.8460434,13.9290315 43.6726208,14.0496388 43.5165398,14.2047041 C43.3604585,14.3597694 43.23906,14.5320642 43.1523535,14.738818 C43.0656421,14.9455723 43.0136134,15.169556 43.0136134,15.3935392 C43.0136134,15.6347529 43.0656562,15.8415067 43.1523535,16.0482609 C43.23906,16.2550147 43.3604585,16.4273095 43.5165398,16.5823753 C43.6726208,16.7374411 43.8460434,16.8580474 44.0541487,16.9441953 C44.2622537,17.0303423 44.4877096,17.0820307 44.7131561,17.0820307 C44.9559485,17.0820307 45.1640582,17.0303423 45.3721635,16.9441953 C45.5802685,16.8580474 45.753691,16.7374411 45.909777,16.5823753 C46.0658583,16.4273095 46.1872522,16.2550147 46.2739633,16.0482609 C46.3606697,15.8415067 46.4126984,15.617523 46.4126984,15.3935392 C46.4126984,15.169556 46.3606557,14.9455723 46.2739633,14.738818 L46.2739633,14.738818 Z" id="path1076"></path>
                    <path d="M44.8345499,15.2557043 C44.7825072,15.2557043 44.730502,15.2557043 44.6611274,15.2557043 L44.4009937,15.2557043 L44.4009937,14.704359 L44.6611274,14.704359 C44.7131701,14.704359 44.7651847,14.704359 44.8345499,14.704359 C44.8865974,14.704359 44.9386026,14.7215876 44.9906359,14.7388208 C45.0426787,14.7560494 45.0773424,14.7905093 45.0946883,14.8249687 C45.1293426,14.8594258 45.1293426,14.9111156 45.1293426,14.980034 C45.1293426,15.0489524 45.1119686,15.1006408 45.0946883,15.1350993 C45.060034,15.1695565 45.0253418,15.2040177 44.9906359,15.2212472 C44.9385882,15.2384758 44.8865833,15.2557043 44.8345499,15.2557043 L44.8345499,15.2557043 Z M45.0253184,15.548605 C45.1640582,15.5313765 45.2681108,15.4796871 45.3548222,15.3935392 C45.4415287,15.3073923 45.4935573,15.1867854 45.4935573,15.0144906 C45.4935573,14.8249659 45.4415146,14.68713 45.3201348,14.5837527 C45.2160822,14.4803763 45.0253184,14.4286873 44.7998672,14.4286873 L44.0368071,14.4286873 L44.0368071,16.375621 L44.4009937,16.375621 L44.4009937,15.583064 L44.6611274,15.583064 L45.146717,16.375621 L45.5282448,16.375621 L45.0253184,15.548605 Z" id="path6"></path>
                    <polygon id="rect4" points="0 0.240269691 3.23607761 0.240269691 3.23607761 3.45530711 0 3.45530711"></polygon>
                </g>
            </g>
        </g>
    </g>
</svg>