<?xml version="1.0" encoding="UTF-8"?>
<svg width="63px" height="26px" viewBox="0 0 63 26" version="1.1" xmlns="http://www.w3.org/2000/svg" xmlns:xlink="http://www.w3.org/1999/xlink">
    <title>Group 26</title>
    <g id="Showcase" stroke="none" stroke-width="1" fill="none" fill-rule="evenodd">
        <g id="Group-26">
            <rect id="Rectangle" fill="#1C1D1F" x="0" y="0" width="63" height="26"></rect>
            <g id="Group" transform="translate(3.000000, 7.000000)">
                <path d="M1.75530475,5.16623903 L1.75530475,5.16623903 C1.75530475,5.16623903 3.30850383,2.74660374 6.41024651,2.49647202 L6.41024651,1.61900071 C2.97480808,1.91005933 0,4.98108863 0,4.98108863 C0,4.98108863 1.68469148,10.1227234 6.41024651,10.593503 L6.41024651,9.6605347 C2.94241517,9.19989233 1.75530475,5.16623903 1.75530475,5.16623903" id="Fill-5" fill="#7DBA00"></path>
                <path d="M6.41024651,7.80514765 L6.41024651,8.65942361 C3.78928615,8.16634212 3.06179686,5.29056608 3.06179686,5.29056608 C3.06179686,5.29056608 4.32010656,3.81908776 6.41024651,3.58063962 L6.41024651,4.51817828 L6.40617705,4.51769719 C5.30934354,4.37852512 4.45247796,5.46039037 4.45247796,5.46039037 C4.45247796,5.46039037 4.93257662,7.28103594 6.41024651,7.80514765" id="Fill-6" fill="#7DBA00"></path>
                <path d="M6.41024651,0 L6.41024651,1.61900071 C6.51094124,1.61051293 6.61199407,1.60391515 6.7132748,1.59989462 C10.618915,1.46110055 13.1637276,4.98108863 13.1637276,4.98108863 C13.1637276,4.98108863 10.2408458,8.73275526 7.1959128,8.73275526 C6.9169106,8.73275526 6.65545591,8.70553939 6.41024651,8.65942361 L6.41024651,9.6605347 C6.620133,9.68871274 6.83747473,9.70520721 7.0644204,9.70520721 C9.89800192,9.70520721 11.9473822,8.17785389 13.9317161,6.36981971 C14.2605285,6.64788894 15.6073571,7.32443701 15.8845688,7.62065016 C13.9975763,9.28786282 9.60073598,10.6316465 7.10807757,10.6316465 C6.86788174,10.6316465 6.63673639,10.6161829 6.41024651,10.593503 L6.41024651,12 L17.1803826,12 L17.1803826,0 L6.41024651,0" id="Fill-7" fill="#7DBA00"></path>
                <path d="M6.41024651,3.58063962 L6.41024651,2.49647202 C6.50967156,2.48935878 6.61049651,2.48348262 6.7132748,2.48004628 C9.52188612,2.38695563 11.3645052,5.02744496 11.3645052,5.02744496 C11.3645052,5.02744496 9.37444143,7.9452819 7.24041642,7.9452819 C6.93315589,7.9452819 6.65802781,7.89284323 6.41024651,7.80514765 L6.41024651,4.51817828 C7.50336867,4.65765962 7.72334742,5.16733866 8.3809071,6.32394447 L9.84301537,5.02290898 C9.84301537,5.02290898 8.77580754,3.54531397 6.97661772,3.54531397 C6.78079529,3.54531397 6.59363267,3.55978099 6.41024651,3.58063962" id="Fill-8" fill="#7DBA00"></path>
                <path d="M53.8416626,3.64950402 L53.8416626,3.64950402 L55.0445951,7.12468214 L52.6003144,7.12468214 L53.8416626,3.64950402 Z M52.552132,2.29613296 L52.552132,2.29613296 L49.7787134,9.71414171 L51.7369377,9.71414171 L52.1761139,8.402969 L55.4583778,8.402969 L55.8737884,9.71414171 L58,9.71414171 L55.2054202,2.29537697 L52.552132,2.29613296 Z M46.9841336,9.71654716 L48.9706814,9.71654716 L48.9706814,2.2935557 L46.9834825,2.29338389 L46.9841336,9.71654716 Z M33.188663,2.29338389 L33.188663,2.29338389 L31.5309276,8.17671989 L29.9425359,2.2935557 L27.7984186,2.29338389 L30.066573,9.71654716 L32.9295198,9.71654716 L35.2159054,2.29338389 L33.188663,2.29338389 Z M41.2208011,3.90973861 L42.0747366,3.90973861 C43.3138059,3.90973861 44.1150013,4.49704474 44.1150013,6.02075554 C44.1150013,7.5448787 43.3138059,8.13215047 42.0747366,8.13215047 L41.2208011,8.13215047 L41.2208011,3.90973861 Z M39.2505311,2.29338389 L39.2505311,9.71654716 L42.471916,9.71654716 C44.1885771,9.71654716 44.7488604,9.41517949 45.3547217,8.73973105 C45.7828289,8.26551511 46.0598778,7.22437058 46.0598778,6.08663032 C46.0598778,5.04314907 45.8254768,4.1122082 45.416903,3.53256512 C44.680819,2.49581911 43.620806,2.29338389 42.0382743,2.29338389 L39.2505311,2.29338389 Z M20.4271609,2.28304048 L20.4271609,9.71654716 L22.4312887,9.71654716 L22.4312887,4.07214039 L23.9835437,4.07286202 C24.4979235,4.07286202 24.8641749,4.20773865 25.1119236,4.48690752 C25.426086,4.84026712 25.5540298,5.41008224 25.5540298,6.45260131 L25.5540298,9.71654716 L27.4959763,9.71654716 L27.4959763,5.60956221 C27.4959763,2.67828916 25.7255983,2.28304048 23.9939615,2.28304048 L20.4271609,2.28304048 Z M36.0525864,2.2931777 L36.0532375,9.71654716 L38.0394597,9.71654716 L38.0394597,2.2931777 L36.0525864,2.2931777 L36.0525864,2.2931777 Z" id="Fill-9" fill="#FFFFFF"></path>
            </g>
        </g>
    </g>
</svg>